name C:\Users\antoi\Documents\MyRepositories\upper-imu-dc\Results\main_tracking\Case_78\FLX01_linearAccelerations_bodyFrame.mot
datacolumns 4
datarows 47
range 2.54000000 3.00000000
endheader 
time	radius_imu_x	radius_imu_y	radius_imu_z	
          2.54000000	         -2.46316061	         -7.85286387	          4.56524999	
          2.55000000	         -2.44306148	         -7.89958835	          4.55093912	
          2.56000000	         -2.42552867	         -7.94561175	          4.53164811	
          2.57000000	         -2.40932402	         -7.99089596	          4.50764039	
          2.58000000	         -2.39320410	         -8.03540196	          4.47932932	
          2.59000000	         -2.37611090	         -8.07908288	          4.44718401	
          2.60000000	         -2.35731207	         -8.12187124	          4.41166008	
          2.61000000	         -2.33645928	         -8.16367199	          4.37316220	
          2.62000000	         -2.31354922	         -8.20436997	          4.33203207	
          2.63000000	         -2.28882072	         -8.24386075	          4.28853972	
          2.64000000	         -2.26263081	         -8.28208647	          4.24286329	
          2.65000000	         -2.23535936	         -8.31906174	          4.19505540	
          2.66000000	         -2.20736195	         -8.35487989	          4.14501145	
          2.67000000	         -2.17896198	         -8.38970097	          4.09248288	
          2.68000000	         -2.15044817	         -8.42372536	          4.03714361	
          2.69000000	         -2.12207396	         -8.45714282	          3.97869378	
          2.70000000	         -2.09401884	         -8.49011952	          3.91694314	
          2.71000000	         -2.06641060	         -8.52269439	          3.85185060	
          2.72000000	         -2.03924847	         -8.55483522	          3.78350297	
          2.73000000	         -2.01237641	         -8.58641029	          3.71210612	
          2.74000000	         -1.98539789	         -8.61723779	          3.63796609	
          2.75000000	         -1.95759813	         -8.64713913	          3.56151331	
          2.76000000	         -1.92797504	         -8.67598788	          3.48331509	
          2.77000000	         -1.89550830	         -8.70373366	          3.40404708	
          2.78000000	         -1.85945044	         -8.73039128	          3.32445718	
          2.79000000	         -1.81872211	         -8.75602196	          3.24532336	
          2.80000000	         -1.77206576	         -8.78073874	          3.16722092	
          2.81000000	         -1.72001003	         -8.80467663	          3.09059320	
          2.82000000	         -1.66224696	         -8.82798821	          3.01579148	
          2.83000000	         -1.59890938	         -8.85085040	          2.94309286	
          2.84000000	         -1.53068936	         -8.87346104	          2.87263248	
          2.85000000	         -1.45846004	         -8.89602313	          2.80437420	
          2.86000000	         -1.38310766	         -8.91872104	          2.73810841	
          2.87000000	         -1.30547105	         -8.94169782	          2.67349947	
          2.88000000	         -1.22632048	         -8.96504323	          2.61019565	
          2.89000000	         -1.14635599	         -8.98879432	          2.54795968	
          2.90000000	         -1.06618433	         -9.01294592	          2.48676800	
          2.91000000	         -0.98618913	         -9.03746570	          2.42683391	
          2.92000000	         -0.90658961	         -9.06230093	          2.36864391	
          2.93000000	         -0.82754808	         -9.08738468	          2.31293739	
          2.94000000	         -0.74900506	         -9.11264494	          2.26055584	
          2.95000000	         -0.67088139	         -9.13799418	          2.21239983	
          2.96000000	         -0.59317965	         -9.16332139	          2.16935548	
          2.97000000	         -0.51605327	         -9.18847133	          2.13219086	
          2.98000000	         -0.43987337	         -9.21322907	          2.10146369	
          2.99000000	         -0.36525178	         -9.23732203	          2.07745104	
          3.00000000	         -0.29297132	         -9.26045648	          2.06016875	
